<?xml version="1.0" encoding="UTF-8" standalone="no"?>
<!-- Generator: Adobe Illustrator 18.1.0, SVG Export Plug-In . SVG Version: 6.00 Build 0)  -->

<svg
   xmlns:dc="http://purl.org/dc/elements/1.1/"
   xmlns:cc="http://creativecommons.org/ns#"
   xmlns:rdf="http://www.w3.org/1999/02/22-rdf-syntax-ns#"
   xmlns:svg="http://www.w3.org/2000/svg"
   xmlns="http://www.w3.org/2000/svg"
   xmlns:sodipodi="http://sodipodi.sourceforge.net/DTD/sodipodi-0.dtd"
   xmlns:inkscape="http://www.inkscape.org/namespaces/inkscape"
   version="1.0"
   id="Layer_1"
   x="0px"
   y="0px"
   viewBox="0 0 210 205"
   enable-background="new 0 0 150 150"
   xml:space="preserve"
   inkscape:version="0.48.5 r10040"
   width="100%"
   height="100%"
   sodipodi:docname="rocket-logo.svg"><metadata
     id="metadata3035"><rdf:RDF><cc:Work
         rdf:about=""><dc:format>image/svg+xml</dc:format><dc:type
           rdf:resource="http://purl.org/dc/dcmitype/StillImage" /><dc:title></dc:title></cc:Work></rdf:RDF></metadata><defs
     id="defs3033" /><sodipodi:namedview
     pagecolor="#ffffff"
     bordercolor="#666666"
     borderopacity="1"
     objecttolerance="10"
     gridtolerance="10"
     guidetolerance="10"
     inkscape:pageopacity="0"
     inkscape:pageshadow="2"
     inkscape:window-width="1190"
     inkscape:window-height="729"
     id="namedview3031"
     showgrid="false"
     inkscape:zoom="1.2080766"
     inkscape:cx="19.05492"
     inkscape:cy="92.838433"
     inkscape:window-x="0"
     inkscape:window-y="0"
     inkscape:window-maximized="0"
     inkscape:current-layer="text3996"
     showguides="true"
     inkscape:guide-bbox="true"><sodipodi:guide
       orientation="1,0"
       position="201.97395,38.904819"
       id="guide3994" /></sodipodi:namedview><g
     id="g3005"
     transform="translate(-1.7129664,50.546287)"><g
       id="g3011"
       transform="translate(0,-12)"><path
         d="m 95.7,98.7 c 0,1 0,1.9 0,2.1 0,-0.7 0,-1.4 0,-2.1 0,0 0,0 0,0 z"
         id="path3013"
         inkscape:connector-curvature="0"
         style="fill:none" /><g
         id="g3015"><path
           d="m 95.9,100.8 0,-0.5 c 0,0.3 0,0.4 0,0.5 0,0 0,0 0,0 z"
           id="path3023"
           inkscape:connector-curvature="0"
           style="fill:#333333" /></g></g><rect
       style="opacity:0;fill:#000080;fill-opacity:1;stroke:none"
       id="rect3881"
       width="84.87085"
       height="40.972134"
       x="1.1706324"
       y="1.1610893"
       transform="translate(1.7129664,-20.546287)" /><rect
       style="opacity:0;fill:#33495f;fill-opacity:1;stroke:none"
       id="rect3883"
       width="299.09659"
       height="175.00954"
       x="1.1706324"
       y="0.57577312"
       transform="translate(1.7129664,-20.546287)" /><rect
       style="opacity:0;fill:#33495f;fill-opacity:1;stroke:none"
       id="rect3901"
       width="1.1706324"
       height="2.3412647"
       x="132.28146"
       y="78.422829"
       transform="translate(1.7129664,-20.546287)" /></g><g
     inkscape:groupmode="layer"
     id="layer2"
     inkscape:label="Background"
     style="display:inline"
     transform="translate(0,30)"><rect
       style="fill:#33495f;fill-opacity:1;stroke:none"
       id="rect3944"
       width="212.03954"
       height="205.81618"
       x="-0.82776213"
       y="-30.612122" /><g
       style="font-size:37.47712326px;font-style:normal;font-variant:normal;font-weight:normal;font-stretch:normal;line-height:125%;letter-spacing:0px;word-spacing:0px;fill:#ef770c;fill-opacity:1;stroke:none;font-family:Trebuchet MS;-inkscape-font-specification:Trebuchet MS"
       id="text3996"
       transform="translate(-0.8277621,43.732581)"><path
         d="m 34.457538,93.114861 0,33.242179 -5.173879,0 0,-33.242179 -12.055138,0 0,-4.656491 29.827413,0 0,4.656491 -12.598396,0"
         style="fill:#ef770c;fill-opacity:1"
         id="path4001"
         inkscape:connector-curvature="0" /><path
         d="m 51.376124,88.45837 5.173879,0 0,25.94701 c -10e-6,2.31101 0.732957,4.21672 2.198899,5.71714 1.46592,1.48317 3.406122,2.22477 5.820614,2.22475 2.552427,2e-5 4.561614,-0.72433 6.027569,-2.17302 1.465908,-1.44867 2.198873,-3.41474 2.198898,-5.89822 l 0,-25.81766 5.17388,0 0,26.36092 c -3e-5,3.82868 -1.198645,6.82089 -3.595846,8.97668 -2.38001,2.13854 -5.630927,3.2078 -9.752763,3.2078 -4.242594,0 -7.510756,-1.05202 -9.8045,-3.15606 -2.293759,-2.10405 -3.440634,-5.12213 -3.44063,-9.05429 l 0,-26.33505"
         style="fill:#ef770c;fill-opacity:1"
         id="path4003"
         inkscape:connector-curvature="0" /><path
         d="m 99.544934,93.114861 0,33.242179 -5.173873,0 0,-33.242179 -12.055138,0 0,-4.656491 29.827417,0 0,4.656491 -12.598406,0"
         style="fill:#ef770c;fill-opacity:1"
         id="path4005"
         inkscape:connector-curvature="0" /><path
         d="m 114.65267,107.08433 c -1e-5,-5.48428 1.37107,-10.071791 4.11323,-13.762514 2.75939,-3.690663 6.47596,-5.536011 11.14971,-5.536049 5.26009,3.8e-5 9.28709,1.698794 12.08101,5.096271 2.8111,3.397539 4.21668,8.131642 4.2167,14.202292 -2e-5,6.22591 -1.4056,11.10661 -4.2167,14.64209 -2.81117,3.51823 -6.83817,5.27735 -12.08101,5.27735 -4.77723,0 -8.51966,-1.86259 -11.22732,-5.58778 -2.69042,-3.7252 -4.03563,-8.50241 -4.03562,-14.33166 m 5.43257,0 c -1e-5,4.34608 0.85368,7.97642 2.56107,10.89102 1.72461,2.91462 4.14771,4.37194 7.2693,4.37192 3.53546,2e-5 6.22588,-1.33657 8.07125,-4.00975 1.86257,-2.67316 2.79386,-6.42421 2.79389,-11.25319 -3e-5,-9.761343 -3.62173,-14.642039 -10.86514,-14.642073 -3.20782,3.4e-5 -5.64817,1.310749 -7.32104,3.932146 -1.6729,2.621465 -2.50934,6.191437 -2.50933,10.709927"
         style="fill:#ef770c;fill-opacity:1"
         id="path4007"
         inkscape:connector-curvature="0" /><path
         d="m 173.19512,126.35704 -10.11494,-16.27185 c -1.15551,1e-5 -2.98362,-0.0862 -5.48431,-0.25869 l 0,16.53054 -5.17388,0 0,-37.89867 c 0.18971,3.8e-5 1.52629,-0.06032 4.00976,-0.181085 2.50069,-0.137932 4.32018,-0.206917 5.45844,-0.206955 9.10599,3.8e-5 13.65902,3.62175 13.65903,10.86515 -1e-5,2.38001 -0.73299,4.52716 -2.1989,6.44147 -1.46595,1.89711 -3.20782,3.07848 -5.2256,3.54411 l 10.99448,17.43598 -5.92408,0 m -15.59925,-33.242179 0,12.313829 c 1.24171,0.17248 2.44895,0.25872 3.62171,0.2587 3.10432,2e-5 5.36357,-0.50013 6.77779,-1.50042 1.41416,-1.00026 2.12125,-2.78525 2.12128,-5.35497 -3e-5,-2.121266 -0.75886,-3.647557 -2.2765,-4.578883 -1.51769,-0.931267 -3.91491,-1.396915 -7.19169,-1.39695 -0.51741,3.5e-5 -1.53493,0.08626 -3.05259,0.258694"
         style="fill:#ef770c;fill-opacity:1"
         id="path4009"
         inkscape:connector-curvature="0" /><path
         d="m 181.58881,124.62378 1.88846,-4.75997 c 0.96579,0.70711 2.1644,1.30211 3.59585,1.785 1.44868,0.46564 2.74214,0.69848 3.88041,0.69846 2.0178,2e-5 3.63894,-0.55187 4.86345,-1.65564 1.22445,-1.10375 1.83671,-2.50931 1.83672,-4.2167 -10e-6,-1.27622 -0.34494,-2.45759 -1.03477,-3.54411 -0.67263,-1.10375 -2.38001,-2.30236 -5.12214,-3.59584 l -3.05259,-1.42283 c -2.58695,-1.20722 -4.3978,-2.63865 -5.43259,-4.29432 -1.01751,-1.65561 -1.52629,-3.647555 -1.52629,-5.97582 0,-2.828365 1.00029,-5.173848 3.00086,-7.036479 2.00057,-1.862559 4.57025,-2.793857 7.70907,-2.793896 4.19083,3.9e-5 7.10546,0.681266 8.74386,2.043683 l -1.52629,4.501279 c -0.68987,-0.500113 -1.74188,-0.983009 -3.15606,-1.448691 -1.41421,-0.465615 -2.72493,-0.698439 -3.93216,-0.698473 -1.75913,3.4e-5 -3.14744,0.500175 -4.16497,1.500425 -1.00029,1.000318 -1.50043,2.285163 -1.50042,3.854535 -1e-5,0.965832 0.18108,1.845393 0.54325,2.638687 0.36217,0.79336 0.86231,1.45733 1.50043,1.99194 0.65534,0.53466 1.98331,1.28487 3.98389,2.25065 l 3.10432,1.47455 c 2.58692,1.22449 4.39779,2.69043 5.43259,4.39778 1.05198,1.69015 1.57799,3.84594 1.57802,6.46736 -3e-5,2.84563 -1.1469,5.26011 -3.44063,7.24343 -2.27653,1.98333 -5.32911,2.97498 -9.15777,2.97498 -3.36302,0 -6.23452,-0.79333 -8.6145,-2.37999"
         style="fill:#ef770c;fill-opacity:1"
         id="path4017"
         inkscape:connector-curvature="0" /></g></g><g
     inkscape:groupmode="layer"
     id="layer1"
     inkscape:label="Rocket"
     style="display:inline"
     transform="translate(0,30)"><path
       d="m 15.145817,121.29677 c 4.2,-13.10001 13.3,-24.000009 25.2,-30.400009 V 63.296758 c -8,6.700003 -23.5,23.900003 -25.2,58.000012 z"
       id="path3007"
       inkscape:connector-curvature="0"
       style="fill:#ff9f4f;fill-opacity:1" /><path
       d="m 86.556303,62.765758 v 28.500003 c 12.1,6.1 21.499997,16.599999 25.999997,29.500009 -1.9,-34.900009 -18.299997,-51.900009 -25.999997,-58.000012 z"
       id="path3009"
       inkscape:connector-curvature="0"
       style="fill:#ff9f4f;fill-opacity:1" /><path
       d="m 50.530317,24.256013 c 0,-1.8 -1.4,-3.2 -3.2,-3.2 -1.8,0 -3.2,1.4 -3.2,3.2 v 65.499998 c 2,-1 4.2,-1.9 6.4,-2.6 V 24.256013 z"
       id="path3017"
       inkscape:connector-curvature="0"
       style="fill:#ffffff;fill-opacity:1" /><path
       d="m 69.830313,85.756011 v -2.5 l 0,0 V 24.256013 c 0,-3.6 -2.9,-6.4 -6.4,-6.4 -3.599996,0 -6.399996,2.9 -6.399996,6.4 v 61.399998 c 2,-0.3 4.099996,-0.5 6.299996,-0.5 2.2,0.1 4.4,0.3 6.5,0.6 z"
       id="path3019"
       inkscape:connector-curvature="0"
       style="fill:#ffffff;fill-opacity:1" /><path
       d="m 80.700953,19.324704 c 0.2,0 0.4,0.111629 0.5,0.111629 l -13,-24.223139 -3.8,-6.586015 -3.4,6.474387 -13.100003,24.223138 c 0.2,0 0.4,-0.111627 0.6,-0.111627 11.143371,0.537759 22.938993,0.270282 32.200003,0.111627 z"
       id="path3021"
       inkscape:connector-curvature="0"
       style="fill:#ffffff;fill-opacity:1"
       sodipodi:nodetypes="cccccccc" /><path
       d="m 82.730313,24.256013 c 0,-1.8 -1.5,-3.2 -3.2,-3.2 -1.8,0 -3.2,1.4 -3.2,3.2 v 62.999998 c 2.2,0.7 4.3,1.6 6.3,2.6 l 0.1,-65.599998 z"
       id="path3025"
       inkscape:connector-curvature="0"
       style="fill:#ffffff;fill-opacity:1" /><path
       d="m 81.430313,95.156011 c 0,-0.1 -0.1,-0.2 -0.1,-0.2 0.1,-0.4 0.2,-0.9 0.2,-1.4 0.8,-4.9 0.8,-10.2 1,-15.7 0,-0.3 0,-0.9 0,-1.6 0,-0.2 0,-0.3 0,-0.5 0,-0.9 0,-1.8 0,-2.3 0,-2.5 0,-6.3 0,-6.8 0,0 0,0 0,0 -2,-0.999999 -4.1,-1.899999 -6.3,-2.599999 v 0 c 0,0 -0.1,6.799999 -0.1,6.799999 v 14.6 c 0,1.8 -1.4,3.2 -3.2,3.2 -1.7,0 -3.2,-1.4 -3.2,-3.2 v -16.1 -6.799999 c -2.1,-0.3 -4.2,-0.5 -6.5,-0.5 -2.2,0 -4.299996,0.2 -6.299996,0.5 0,0 -0.1,6.899999 -0.1,6.899999 v 16 c 0,1.8 -1.4,3.2 -3.2,3.2 -1.7,0 -3.2,-1.4 -3.2,-3.2 v -14.6 l 0,-6.799999 c -2.3,0.7 -4.4,1.6 -6.4,2.599999 0,0 -0.1,6.9 -0.1,6.9 0,1.8 0,3.6 0.1,5.3 0.2,5.4 0.3,10.5 1.1,15.2 0,0.3 0.1,0.6 0.1,0.8 0,0 -0.1,0.1 -0.1,0.1 -2.4,4.4 -2,11.199999 0.5,17.499999 2.6,6.40001 7.4,5.40001 13.7,7.10001 l -2.4,-24.600009 c -0.1,-0.8 0.2,-1.6 0.8,-2.2 0.5,-0.6 1.3,-0.9 2.1,-0.9 h 9.199996 c 0.8,0 1.6,0.3 2.1,0.9 0.5,0.6 0.8,1.4 0.8,2.2 l -2.3,23.600009 c 5.3,-2.50001 9.3,-1.10001 11.5,-7.00001 2.2,-5.8 2.5,-12.199999 0.3,-16.399999 z"
       id="path3027"
       inkscape:connector-curvature="0"
       style="fill:#ffffff;fill-opacity:1" /><path
       d="m 64.630313,93.206631 c -1.8,0 -5.599996,-0.1 -5.599996,1.7 0.67287,10.796229 1.503616,24.158469 5.599996,37.390139 4.09504,-13.45529 4.4298,-27.48949 5.1,-37.390139 0.1,-1.9 -3.2,-1.7 -5.1,-1.7 z"
       id="path3029"
       inkscape:connector-curvature="0"
       style="fill:#ff9f4f;fill-opacity:1"
       sodipodi:nodetypes="scccs" /><text
       xml:space="preserve"
       style="font-size:91.64334106px;font-style:normal;font-variant:normal;font-weight:normal;font-stretch:normal;line-height:125%;letter-spacing:0px;word-spacing:0px;fill:#ffffff;fill-opacity:1;stroke:none;font-family:Trebuchet MS;-inkscape-font-specification:Trebuchet MS"
       x="112.50564"
       y="124.92199"
       id="text3990"
       sodipodi:linespacing="125%"
       transform="scale(1.0577497,0.94540325)"><tspan
         sodipodi:role="line"
         id="tspan3992"
         x="112.50564"
         y="124.92199"
         style="fill:#ffffff">IT</tspan></text>
</g><g
     inkscape:groupmode="layer"
     id="layer3"
     inkscape:label="Ace"
     style="display:inline"
     transform="translate(0,30)"><text
       xml:space="preserve"
       style="font-size:92.09250641px;font-style:normal;font-variant:normal;font-weight:normal;font-stretch:normal;line-height:125%;letter-spacing:0px;word-spacing:0px;fill:#000000;fill-opacity:1;stroke:none;display:inline;font-family:Trebuchet MS;-inkscape-font-specification:Trebuchet MS"
       x="30.6472"
       y="39.564144"
       id="text3947"
       sodipodi:linespacing="125%"
       transform="scale(1.0821599,0.92407785)"><tspan
         sodipodi:role="line"
         id="tspan3949"
         x="30.6472"
         y="39.564144"
         style="fill:#ffffff"><tspan
   style="fill:#ff9f4f;fill-opacity:1"
   id="tspan3972">A</tspan>CE</tspan></text>
</g></svg>